<?xml version="1.0" encoding="UTF-8" standalone="no"?><svg xmlns="http://www.w3.org/2000/svg" xmlns:xlink="http://www.w3.org/1999/xlink" contentScriptType="application/ecmascript" contentStyleType="text/css" height="276px" preserveAspectRatio="none" style="width:943px;height:276px;" version="1.1" viewBox="0 0 943 276" width="943px" zoomAndPan="magnify"><defs><filter height="300%" id="fzjo3mqr3ifsw" width="300%" x="-1" y="-1"><feGaussianBlur result="blurOut" stdDeviation="2.0"/><feColorMatrix in="blurOut" result="blurOut2" type="matrix" values="0 0 0 0 0 0 0 0 0 0 0 0 0 0 0 0 0 0 .4 0"/><feOffset dx="4.0" dy="4.0" in="blurOut2" result="blurOut3"/><feBlend in="SourceGraphic" in2="blurOut3" mode="normal"/></filter></defs><g><rect fill="#FEFECE" filter="url(#fzjo3mqr3ifsw)" height="50.2656" rx="12.5" ry="12.5" style="stroke: #A80036; stroke-width: 1.5;" width="150" x="381" y="96"/><line style="stroke: #A80036; stroke-width: 1.5;" x1="381" x2="531" y1="122.2969" y2="122.2969"/><text fill="#000000" font-family="sans-serif" font-size="14" lengthAdjust="spacingAndGlyphs" textLength="90" x="411" y="113.9951">States Match</text><text fill="#000000" font-family="sans-serif" font-size="12" lengthAdjust="spacingAndGlyphs" textLength="130" x="386" y="138.4355">desired == reported</text><rect fill="#FEFECE" filter="url(#fzjo3mqr3ifsw)" height="64.2344" rx="12.5" ry="12.5" style="stroke: #A80036; stroke-width: 1.5;" width="262" x="669" y="89"/><line style="stroke: #A80036; stroke-width: 1.5;" x1="669" x2="931" y1="115.2969" y2="115.2969"/><text fill="#000000" font-family="sans-serif" font-size="14" lengthAdjust="spacingAndGlyphs" textLength="117" x="741.5" y="106.9951">Desired Updated</text><text fill="#000000" font-family="sans-serif" font-size="12" lengthAdjust="spacingAndGlyphs" textLength="146" x="674" y="131.4355">Different than reported</text><text fill="#000000" font-family="sans-serif" font-size="12" lengthAdjust="spacingAndGlyphs" textLength="242" x="674" y="145.4043">or desired exists and reported doesn't</text><rect fill="#FEFECE" filter="url(#fzjo3mqr3ifsw)" height="50.2656" rx="12.5" ry="12.5" style="stroke: #A80036; stroke-width: 1.5;" width="214" x="6" y="96"/><line style="stroke: #A80036; stroke-width: 1.5;" x1="6" x2="220" y1="122.2969" y2="122.2969"/><text fill="#000000" font-family="sans-serif" font-size="14" lengthAdjust="spacingAndGlyphs" textLength="128" x="49" y="113.9951">Reported Updated</text><text fill="#000000" font-family="sans-serif" font-size="12" lengthAdjust="spacingAndGlyphs" textLength="194" x="11" y="138.4355">Value does not exist in desired</text><ellipse cx="456" cy="18" fill="#000000" filter="url(#fzjo3mqr3ifsw)" rx="10" ry="10" style="stroke: none; stroke-width: 1.0;"/><ellipse cx="456" cy="255" fill="none" filter="url(#fzjo3mqr3ifsw)" rx="10" ry="10" style="stroke: #000000; stroke-width: 1.0;"/><ellipse cx="456.5" cy="255.5" fill="#000000" rx="6" ry="6" style="stroke: none; stroke-width: 1.0;"/><!--link *start to match--><path d="M456,28.2526 C456,42.6067 456,69.2981 456,90.3747 " fill="none" id="*start-match" style="stroke: #A80036; stroke-width: 1.0;"/><polygon fill="#A80036" points="456,95.6013,460,86.6013,456,90.6013,452,86.6013,456,95.6013" style="stroke: #A80036; stroke-width: 1.0;"/><!--link match to desired--><path d="M531.0672,121 C569.8998,121 618.5198,121 663.7017,121 " fill="none" id="match-desired" style="stroke: #A80036; stroke-width: 1.0;"/><polygon fill="#A80036" points="668.9095,121,659.9095,117,663.9095,121,659.9095,125,668.9095,121" style="stroke: #A80036; stroke-width: 1.0;"/><text fill="#000000" font-family="sans-serif" font-size="13" lengthAdjust="spacingAndGlyphs" textLength="101" x="549.5" y="99.0669">New or different</text><text fill="#000000" font-family="sans-serif" font-size="13" lengthAdjust="spacingAndGlyphs" textLength="85" x="557.5" y="114.1997">desired value</text><!--link desired to match--><path d="M668.864,140.4574 C632.3058,143.5139 592.5863,144.6228 556,141 C549.5416,140.3605 542.8825,139.4941 536.2125,138.4788 " fill="none" id="desired-match" style="stroke: #A80036; stroke-width: 1.0;"/><polygon fill="#A80036" points="531.1129,137.6747,539.38,143.0278,536.0519,138.4536,540.6261,135.1255,531.1129,137.6747" style="stroke: #A80036; stroke-width: 1.0;"/><text fill="#000000" font-family="sans-serif" font-size="13" lengthAdjust="spacingAndGlyphs" textLength="86" x="557" y="137.0669">values match</text><!--link desired to *end--><path d="M717.6034,153.0963 C634.1138,185.6185 511.5451,233.3633 470.2074,249.4657 " fill="none" id="desired-*end" style="stroke: #A80036; stroke-width: 1.0;"/><polygon fill="#A80036" points="465.3586,251.3545,475.1967,251.8151,470.0176,249.5397,472.293,244.3606,465.3586,251.3545" style="stroke: #A80036; stroke-width: 1.0;"/><text fill="#000000" font-family="sans-serif" font-size="13" lengthAdjust="spacingAndGlyphs" textLength="36" x="649.5" y="196.0669">/delta</text><text fill="#000000" font-family="sans-serif" font-size="13" lengthAdjust="spacingAndGlyphs" textLength="57" x="639" y="211.1997">/updated</text><!--link reported to match--><path d="M225.3447,121 C276.3715,121 335.3604,121 380.9098,121 " fill="none" id="reported-match" style="stroke: #A80036; stroke-width: 1.0;"/><polygon fill="#A80036" points="220.1165,121,229.1165,125,225.1165,121,229.1165,117,220.1165,121" style="stroke: #A80036; stroke-width: 1.0;"/><text fill="#000000" font-family="sans-serif" font-size="13" lengthAdjust="spacingAndGlyphs" textLength="124" x="238.5" y="114.0669">New reported value</text><!--link reported to match--><path d="M220.1909,138.0722 C230.5811,139.2639 240.9794,140.2776 251,141 C294.8861,144.1636 306.1911,145.0968 350,141 C358.3383,140.2202 366.998,139.1026 375.6123,137.789 " fill="none" id="reported-match-1" style="stroke: #A80036; stroke-width: 1.0;"/><polygon fill="#A80036" points="380.9668,136.947,371.4547,134.3936,376.0275,137.7237,372.6974,142.2965,380.9668,136.947" style="stroke: #A80036; stroke-width: 1.0;"/><text fill="#000000" font-family="sans-serif" font-size="13" lengthAdjust="spacingAndGlyphs" textLength="97" x="252" y="137.0669">Value removed</text><!--link reported to *end--><path d="M177.1133,146.0472 C259.6366,178.2866 397.6677,232.2113 441.9044,249.4933 " fill="none" id="reported-*end" style="stroke: #A80036; stroke-width: 1.0;"/><polygon fill="#A80036" points="446.5925,251.3248,439.6652,244.3239,441.9353,249.5053,436.754,251.7754,446.5925,251.3248" style="stroke: #A80036; stroke-width: 1.0;"/><text fill="#000000" font-family="sans-serif" font-size="13" lengthAdjust="spacingAndGlyphs" textLength="57" x="346" y="203.5669">/updated</text><!--
@startuml
hide empty description
state "States Match" as match
match : desired == reported

state "Desired Updated" as desired
desired : Different than reported
desired : or desired exists and reported doesn't

state "Reported Updated" as reported
reported : Value does not exist in desired


[*] - -> match
match -right-> desired : New or different\ndesired value
desired - -> [*] : /delta\n/updated
desired -> match : values match

match -left-> reported : New reported value
reported -> [*] : /updated
reported -> match : Value removed
@enduml

PlantUML version 1.2019.06(Fri May 24 17:10:25 GMT 2019)
(APACHE source distribution)
Java Runtime: OpenJDK Runtime Environment
JVM: OpenJDK 64-Bit Server VM
Java Version: 11.0.4+11-post-Ubuntu-1ubuntu218.04.3
Operating System: Linux
OS Version: 4.9.184-linuxkit
Default Encoding: ANSI_X3.4-1968
Language: en
Country: US
--></g></svg>